HIERARCHY
ROOT Hips
{
	OFFSET 0.000000 0.000000 0.000000 
	CHANNELS 6 Xposition Yposition Zposition Zrotation Yrotation Xrotation
	JOINT LeftUpLeg
	{
		OFFSET 1.363060 -1.794630 0.839290 
		CHANNELS 3 Zrotation Yrotation Xrotation
		JOINT LeftLeg
		{
			OFFSET 2.448110 -6.726130 0.000000 
			CHANNELS 3 Zrotation Yrotation Xrotation
			JOINT LeftFoot
			{
				OFFSET 2.562200 -7.039590 0.000000 
				CHANNELS 3 Zrotation Yrotation Xrotation
				JOINT LeftToeBase
				{
					OFFSET 0.157640 -0.433110 2.322550 
					CHANNELS 3 Zrotation Yrotation Xrotation
					End Site
					{
						OFFSET 0.000000 0.000000 0.000000 
					}
				}
			}
		}
	}
	JOINT RightUpLeg
	{
		OFFSET -1.305520 -1.794630 0.839290 
		CHANNELS 3 Zrotation Yrotation Xrotation
		JOINT RightLeg
		{
			OFFSET -2.542530 -6.985550 0.000000 
			CHANNELS 3 Zrotation Yrotation Xrotation
			JOINT RightFoot
			{
				OFFSET -2.568260 -7.056230 0.000000 
				CHANNELS 3 Zrotation Yrotation Xrotation
				JOINT RightToeBase
				{
					OFFSET -0.164730 -0.452590 2.363150 
					CHANNELS 3 Zrotation Yrotation Xrotation
					End Site
					{
						OFFSET 0.000000 0.000000 0.000000 
					}
				}
			}
		}
	}
	JOINT Spine
	{
		OFFSET 0.028270 2.035590 -0.193380 
		CHANNELS 3 Zrotation Yrotation Xrotation
		JOINT Spine1
		{
			OFFSET 0.056720 2.048850 -0.042750 
			CHANNELS 3 Zrotation Yrotation Xrotation
			JOINT Neck1
			{
				OFFSET -0.054170 1.746240 0.172020 
				CHANNELS 3 Zrotation Yrotation Xrotation
				JOINT Head
				{
					OFFSET 0.104070 1.761360 -0.123970 
					CHANNELS 3 Zrotation Yrotation Xrotation
					End Site
					{
						OFFSET 0.000000 0.000000 0.000000 
					}
				}
			}
			JOINT LeftArm
			{
				OFFSET 3.362410 1.200890 -0.311210 
				CHANNELS 3 Zrotation Yrotation Xrotation
				JOINT LeftForeArm
				{
					OFFSET 4.983000 -0.000000 -0.000000 
					CHANNELS 3 Zrotation Yrotation Xrotation
					JOINT LeftHand
					{
						OFFSET 3.483560 -0.000000 -0.000000 
						CHANNELS 3 Zrotation Yrotation Xrotation
						JOINT LeftHandIndex1
						{
							OFFSET 0.715260 -0.000000 -0.000000 
							CHANNELS 3 Zrotation Yrotation Xrotation
							End Site
							{
								OFFSET 0.000000 0.000000 0.000000 
							}
						}
					}
				}
			}
			JOINT RightArm
			{
				OFFSET -3.136600 1.374050 -0.404650 
				CHANNELS 3 Zrotation Yrotation Xrotation
				JOINT RightForeArm
				{
					OFFSET -5.241900 -0.000000 -0.000000 
					CHANNELS 3 Zrotation Yrotation Xrotation
					JOINT RightHand
					{
						OFFSET -3.444170 -0.000000 -0.000000 
						CHANNELS 3 Zrotation Yrotation Xrotation
						JOINT RightHandIndex1
						{
							OFFSET -0.622530 -0.000000 -0.000000 
							CHANNELS 3 Zrotation Yrotation Xrotation
							End Site
							{
								OFFSET 0.000000 0.000000 0.000000 
							}
						}
					}
				}
			}
		}
	}
}
MOTION
Frames: 7
Frame Time: 0.041667
-27.642468 16.714199 3.429230 175.314272 1.360977 -172.754279 -7.413546 13.218165 -40.184114 6.692564 15.644328 44.965911 -2.333610 11.334679 20.829148 0.798500 -5.703500 -15.926500 2.400995 -20.504894 -41.892663 -10.182677 -15.591326 55.312295 1.581256 -6.961744 3.928130 -0.193000 2.828900 -7.802700 -0.114597 0.904882 -2.219097 -3.133735 0.333760 -4.531954 -0.324487 3.894850 0.338748 -2.454600 0.682800 8.190400 -76.421148 -28.916600 36.093996 64.375432 -51.551197 -46.695533 -2.318273 -0.665242 -34.768797 -7.125000 0.000000 0.000000 55.739494 12.571027 24.924226 -63.343933 50.086018 -48.249776 -0.042723 3.496707 -17.261335 7.125000 0.000000 0.000000 
-27.693728 16.702396 3.429114 175.462723 1.510495 -172.752294 -7.319974 12.790026 -40.177817 6.899216 15.812965 45.459572 -2.743927 12.015389 20.055906 0.979600 -6.300500 -17.658800 2.303465 -20.222646 -41.852919 -10.175822 -15.603970 55.292225 1.640477 -7.101076 4.018638 -0.199900 2.879300 -7.943000 -0.113881 0.784329 -2.240471 -3.087282 0.279140 -4.648993 -0.317848 4.459909 0.123735 -2.338300 0.962500 8.006800 -76.164438 -30.248195 35.533216 65.135335 -51.522056 -47.569267 -2.397652 -0.810035 -36.111284 -7.125000 0.000000 0.000000 56.338809 13.779719 24.534093 -64.864250 50.315346 -49.676710 -0.029958 3.417122 -16.877503 7.125000 0.000000 0.000000 
-27.749733 16.682494 3.425874 175.476556 1.488782 -172.764309 -7.436692 12.487752 -40.326849 7.090637 15.996843 46.059933 -2.995557 12.358284 19.373393 1.267300 -7.135500 -20.117500 2.094723 -20.146655 -41.833577 -10.227441 -15.606297 55.398562 1.651089 -7.124487 4.045453 -0.223100 3.040200 -8.390700 -0.105907 0.561152 -2.242551 -2.986465 0.163961 -4.540405 -0.336197 4.484284 0.216881 -2.360800 0.968200 8.079300 -75.944018 -31.761111 35.010610 65.366988 -51.351753 -47.914567 -2.423308 -0.869615 -36.167336 -7.125000 0.000000 0.000000 56.845033 15.175906 24.066207 -65.950911 50.409276 -50.687975 -0.029851 3.315198 -16.348981 7.125000 0.000000 0.000000 
-27.810944 16.651367 3.423907 175.404077 1.342637 -172.609276 -7.750472 12.233326 -40.724377 7.271528 16.182132 46.638670 -3.269329 12.766116 18.772356 1.627500 -8.042800 -22.844200 1.837071 -20.152182 -41.962153 -10.286164 -15.576184 55.476829 1.666681 -7.156415 4.056862 -0.245200 3.186600 -8.798600 -0.092716 0.276505 -2.243549 -2.866499 0.026870 -4.358186 -0.319042 4.798413 0.119609 -2.293900 1.112700 8.038200 -75.398892 -33.242625 34.737708 64.790112 -50.966807 -47.402797 -2.436204 -0.801221 -35.353316 -7.125000 0.000000 0.000000 57.182588 16.667994 23.624015 -66.244130 50.280005 -50.905807 -0.004406 3.242094 -15.728849 7.125000 0.000000 0.000000 
-27.866139 16.630655 3.421940 175.460521 1.432905 -172.620836 -8.069769 12.377188 -41.067298 7.522123 16.316765 47.192012 -3.718109 13.579984 18.209314 1.990200 -8.845700 -25.313900 1.661850 -19.983881 -41.927745 -10.301379 -15.579397 55.489521 1.706718 -7.251866 4.095203 -0.273800 3.365500 -9.298000 -0.104822 0.026241 -2.267292 -2.921439 -0.080717 -4.457730 -0.348508 4.738725 0.097962 -2.322700 1.085500 8.002400 -74.186563 -34.461109 34.475003 63.653292 -50.398512 -46.317992 -2.446670 -0.694311 -34.326776 -7.125000 0.000000 0.000000 57.666373 18.235843 23.449777 -65.814760 49.939231 -50.285495 0.061208 3.169454 -15.127287 7.125000 0.000000 0.000000 
-27.909299 16.627993 3.420320 175.679306 1.813566 -172.869491 -8.008449 12.647875 -41.061848 7.724313 16.358493 47.623801 -3.911305 13.885934 17.799227 1.816900 -8.473800 -24.162600 1.576823 -19.516964 -41.613303 -10.255132 -15.635095 55.412158 1.796662 -7.474035 4.142835 -0.319000 3.630500 -10.039300 -0.159390 -0.250216 -2.322345 -3.322902 -0.176051 -4.944833 -0.370044 4.991581 -0.171786 -2.285700 1.232800 7.804800 -72.048544 -35.262673 34.249088 62.643091 -49.810553 -45.335079 -2.509748 -0.702896 -34.188556 -7.125000 0.000000 0.000000 58.641031 19.782681 23.636402 -65.234960 49.559466 -49.373517 0.161933 3.112551 -14.622155 7.125000 0.000000 0.000000 
-27.953848 16.629729 3.416733 175.883126 2.126645 -173.140502 -7.836775 12.705705 -40.928499 7.840462 16.414040 47.997580 -3.865088 13.698453 17.479438 1.728000 -8.274900 -23.552300 1.470435 -19.099523 -41.188462 -10.190092 -15.665236 55.275005 1.835425 -7.579276 4.214946 -0.332500 3.705600 -10.249900 -0.161622 -0.219512 -2.327376 -3.224646 -0.188222 -5.110700 -0.374190 5.063308 -0.439212 -2.302600 1.271500 7.577700 -70.550063 -36.288076 34.589204 62.051309 -49.393348 -44.644887 -2.592277 -0.753992 -34.597956 -7.125000 0.000000 0.000000 58.919864 21.243273 23.437356 -64.492767 49.141052 -48.489359 0.225533 3.100200 -14.171128 7.125000 0.000000 0.000000 
